<svg id="Camada_1" data-name="Camada 1" xmlns="http://www.w3.org/2000/svg" viewBox="0 0 63.21 63.09">
    <defs>
        <style>.cls-1{fill:#4b5563;}</style>
    </defs>
    <path class="cls-1"
        d="M31.61,28.78a14,14,0,1,1,14-14A14,14,0,0,1,31.61,28.78Zm0-24.57A10.57,10.57,0,1,0,42.18,14.78,10.58,10.58,0,0,0,31.61,4.21Z" />
    <path class="cls-1"
        d="M9.31,62.32A1.72,1.72,0,0,1,7.59,60.6V54.36c0-14,10.77-25.44,24-25.44s24,11.41,24,25.44l0,6.25a1.72,1.72,0,0,1-1.71,1.71Zm22.3-30c-11.35,0-20.59,9.87-20.59,22v4.53H52.15l0-4.54C52.18,42.22,43,32.35,31.61,32.35Z" />
</svg>